<?xml version="1.0" encoding="utf-8"?>
<svg id="Layer_1" xmlns="http://www.w3.org/2000/svg" viewBox="0 0 215.57 197.48">
  <defs>
    <style>.cls-1,.cls-2{stroke-width:2.11px;}.cls-1,.cls-2,.cls-3{fill:#fff;stroke:#fff;}.cls-2,.cls-3,.cls-4{stroke-miterlimit:10;}.cls-3{stroke-width:3.16px;}.cls-4{fill:#e5451a;stroke:#e5451a;stroke-width:3px;}</style>
  </defs>
  <rect class="cls-4" x="1.5" y="1.5" width="212.57" height="194.48"/>
  <path class="cls-3" d="M 153.54 86.41 C 157.73 87.03 159.5 89.9 159.96 93.67 C 160.28 96.28 160.28 98.89 160.19 101.52 C 160.05 106.21 160.26 110.91 160.08 115.6 C 160.01 117.26 159.69 118.89 158.92 120.31 C 157.23 123.49 154.62 125.67 151.11 126.66 C 149.96 126.99 148.76 127.2 147.59 127.12 C 146.4 127.04 145.25 127.88 144.06 127.18 C 143.88 127.08 143.6 127.18 143.36 127.16 C 140.91 126.93 138.46 127.25 136.02 127.23 C 124.42 127.1 112.82 127.17 101.21 127.17 C 93.97 127.17 86.72 127.06 79.48 127.24 C 77.12 127.3 74.79 126.95 72.44 127.17 C 72.31 127.19 72.16 127.14 72.04 127.17 C 70.97 127.47 69.91 127.33 68.81 127.2 C 67.57 127.06 66.31 127.01 65.1 126.75 C 59.79 125.64 56.16 121.59 55.55 115.89 C 55.23 112.88 55.34 109.85 55.35 106.84 C 55.35 103.12 55.29 99.4 55.43 95.67 C 55.47 94.55 55.6 93.44 55.82 92.35 C 56.09 91.01 56.57 89.74 57.56 88.72 C 58.34 87.92 59.2 87.2 60.28 86.93 C 61.66 86.59 62.93 85.93 64.51 86.24 C 66.41 86.62 68.21 87.05 69.73 88.31 C 72.65 90.71 73.65 94.04 74.14 97.57 C 74.55 100.6 74.62 103.66 74.57 106.72 C 74.54 108.51 74.89 108.83 76.67 108.83 L 138.64 108.83 C 140.9 108.83 140.97 108.77 140.95 106.52 C 140.92 102.56 141.01 98.62 141.96 94.75 C 142.99 90.52 144.73 87.427 148.93 86.217 C 149.75 85.987 153.11 86.33 153.53 86.39 L 153.51 86.39 L 153.54 86.41 Z"/>
  <path class="cls-3" d="M70.45,127.68c.06,1.04-.13,2.08-.11,3.12.02,1.49,1.02,2.43,2.42,2.41.87,0,1.74.03,2.62,0,1.37-.05,1.87-.52,2.11-1.9.21-1.2.04-2.41.1-3.62"/>
  <path class="cls-3" d="M137.94,127.68c0,1.07,0,2.15,0,3.22.02,1.58,1.06,2.28,2.31,2.31.87.02,1.74.03,2.62,0,1.33-.03,2-.66,2.21-2,.19-1.17.04-2.35.1-3.52"/>
  <g id="Generative_Object">
    <path class="cls-2" d="M 85.207 69.087 C 86.477 70.457 84.63 73.69 84.28 75.52 C 83.84 77.83 83.99 79.59 84.46 81.69 C 84.48 81.76 84.54 81.84 84.51 81.94 C 83.93 85.18 87.5 88.82 87.8 91.1 C 88.19 94.21 84.56 95.03 82.28 93.67 C 77.36 90.72 79.49 85.86 83.95 82.25 C 83.75 81.91 83.25 81.76 82.9 81.59 C 78.85 79.45 76.11 76.33 79.13 71.2 C 80.35 69.12 83.45 67.2 85.17 69.05 L 85.207 69.087 Z"/>
    <path class="cls-2" d="M103.75,75.37c.3-1.16.65-2.48,1.12-3.61.82-1.94,3.19-4.66,2.27-6.36-1.99-3.68-9.54,2.26-7.54,7.58.56,1.51,2.1,2.78,2.62,4.38-2.66,2.31-5.62,5.13-3.81,8.3,1.26,2.19,5.37,2.94,5.44-.38.05-2.38-1.76-5.15-.44-8.1l.02-.13c.06-.56.18-1.12.33-1.67h0Z"/>
    <path class="cls-2" d="M121.04,75.94c.58-1.18,1.34-2.22,2.15-3.29.91-1.21,3.4-2.85,2-4.28-1.78-1.8-5.26.58-6.4,2.54-1.43,2.45-.36,4.08.03,6.34l.03.12c-1.38,1.64-3.84,2.44-4.22,4.7-.29,1.76,1.39,5.44,3.83,3.76,1.27-.87.98-3.91,1.24-5.34.23-1.27.77-3.34,1.36-4.54h0Z"/>
    <path class="cls-2" d="M134.06,80.52c1.01.85,5.08,3.1,5.61,3.71.54.61.52,1.04-.87.7-.64-.16-4.12-2.13-4.95-2.68"/>
    <path class="cls-2" d="M132.35,81.43c.04-.08-.05-.49-.04-.66,0-.04,0-.07,0-.11.04-.78-.23-1.43.05-2.27.7-2.07,4.29-3.67,5.9-2.43,2.22,1.69-1.52,3-2.68,3.71-1.84,1.11-1.1,1.05-1.58,2.81-.01.05-.01.08-.03.13-.26.97-.86,3.97-1.21,4.6-.51.89-1.69.99-2.31.44-.67-.6-.88-2.84-.55-3.76.5-1.42,2.28-2.1,2.45-2.44v-.02Z"/>
    <path class="cls-2" d="M112.89,75.45c.46-1.27.86-2.25,1.55-3.45,1.01-1.75,4.02-4.48,2.5-6.04-2.59-2.67-7.81,2.31-7.65,5.93.08,1.84,1.79,3.13,1.53,4.85l-.18.2c-2.5,2.75-5.4,4.64-3.13,8.03.98,1.47,3.6,2.26,4.33-.13.54-1.79-.7-5.68.57-7.91l.03-.13c.14-.45.29-.91.44-1.34h0Z"/>
    <path class="cls-2" d="M94,76.93c0-.05.03-.11.04-.17.21-1.59.41-3.15.96-4.74.64-1.84,2.73-4.4,1.05-5.84-1.93-1.65-4.95.4-6.14,2.46-2.47,4.28-.77,7.37,2.62,9.53.13.23-.13.41-.23.61-.03.08-.11.14-.15.22-1.27,2.31-3.49,4.2-3.45,6.98.03,3.12,5.67,5.73,6.93,2.1.4-1.14-1.41-4.59-1.65-6.09-.18-1.14-.15-2.36-.11-3.55v-.13c.03-.46.06-.92.12-1.38h0Z"/>
    <path class="cls-2" d="M127.52,78.44c.49-.94,1.13-1.77,1.8-2.62.77-.96,2.85-2.27,1.68-3.41-1.49-1.44-4.42.46-5.38,2.02-1.2,1.95-.3,3.25.02,5.05l.02.09c-1.16,1.31-3.23,1.94-3.54,3.75-.25,1.4,1.17,4.33,3.22,3,1.07-.69.82-3.11,1.04-4.25.2-1.01.65-2.66,1.14-3.62h0Z"/>
    <path class="cls-1" d="M74.52,83.59c.07-.02,19.78-8.65,33.59-8.15,15.84.58,26.15,5.15,26.45,5.18.53.06-.21,1.34-.44,1.39-.11.03-14.35-6.03-29.36-5.3-14.63.72-29.48,8.45-29.7,8.42-.43-.04-.67-1.51-.54-1.56Z"/>
  </g>
</svg>